<svg width="302" height="54" viewBox="0 0 302 54" fill="none" xmlns="http://www.w3.org/2000/svg">
<path d="M125.256 28.2727C125.256 31.0154 124.742 33.3645 123.714 35.32C122.695 37.2672 121.303 38.7586 119.538 39.7944C117.782 40.8301 115.789 41.348 113.56 41.348C111.331 41.348 109.334 40.8301 107.569 39.7944C105.813 38.7504 104.421 37.2547 103.393 35.3075C102.374 33.352 101.864 31.0071 101.864 28.2727C101.864 25.5301 102.374 23.1851 103.393 21.2379C104.421 19.2824 105.813 17.7868 107.569 16.7511C109.334 15.7153 111.331 15.1974 113.56 15.1974C115.789 15.1974 117.782 15.7153 119.538 16.7511C121.303 17.7868 122.695 19.2824 123.714 21.2379C124.742 23.1851 125.256 25.5301 125.256 28.2727ZM120.62 28.2727C120.62 26.3421 120.317 24.7139 119.712 23.3881C119.116 22.0541 118.287 21.0473 117.227 20.3679C116.166 19.6802 114.944 19.3363 113.56 19.3363C112.176 19.3363 110.954 19.6802 109.893 20.3679C108.833 21.0473 108 22.0541 107.395 23.3881C106.799 24.7139 106.5 26.3421 106.5 28.2727C106.5 30.2034 106.799 31.8357 107.395 33.1697C108 34.4955 108.833 35.5022 109.893 36.19C110.954 36.8694 112.176 37.2092 113.56 37.2092C114.944 37.2092 116.166 36.8694 117.227 36.19C118.287 35.5022 119.116 34.4955 119.712 33.1697C120.317 31.8357 120.62 30.2034 120.62 28.2727ZM133.916 29.8139V41H129.416V21.9091H133.717V25.1531H133.94C134.38 24.0842 135.08 23.2348 136.041 22.6051C137.01 21.9754 138.208 21.6605 139.633 21.6605C140.95 21.6605 142.098 21.9422 143.076 22.5057C144.062 23.0691 144.824 23.8853 145.363 24.9542C145.91 26.0231 146.179 27.3198 146.171 28.8445V41H141.671V29.5405C141.671 28.2644 141.34 27.266 140.677 26.5451C140.022 25.8242 139.115 25.4638 137.955 25.4638C137.168 25.4638 136.468 25.6378 135.854 25.9858C135.25 26.3255 134.773 26.8185 134.425 27.4648C134.085 28.1112 133.916 28.8942 133.916 29.8139ZM155.244 15.5455V41H150.744V15.5455H155.244ZM159.87 41V21.9091H164.37V41H159.87ZM162.132 19.1996C161.42 19.1996 160.807 18.9634 160.293 18.4911C159.779 18.0105 159.522 17.4347 159.522 16.7635C159.522 16.084 159.779 15.5082 160.293 15.0359C160.807 14.5553 161.42 14.315 162.132 14.315C162.853 14.315 163.467 14.5553 163.972 15.0359C164.486 15.5082 164.743 16.084 164.743 16.7635C164.743 17.4347 164.486 18.0105 163.972 18.4911C163.467 18.9634 162.853 19.1996 162.132 19.1996ZM173.496 29.8139V41H168.996V21.9091H173.297V25.1531H173.521C173.96 24.0842 174.66 23.2348 175.621 22.6051C176.59 21.9754 177.788 21.6605 179.213 21.6605C180.53 21.6605 181.678 21.9422 182.656 22.5057C183.642 23.0691 184.404 23.8853 184.943 24.9542C185.49 26.0231 185.759 27.3198 185.751 28.8445V41H181.251V29.5405C181.251 28.2644 180.92 27.266 180.257 26.5451C179.602 25.8242 178.695 25.4638 177.535 25.4638C176.748 25.4638 176.048 25.6378 175.435 25.9858C174.83 26.3255 174.353 26.8185 174.005 27.4648C173.666 28.1112 173.496 28.8942 173.496 29.8139ZM198.776 41.3729C196.862 41.3729 195.209 40.9751 193.817 40.1797C192.433 39.3759 191.369 38.2408 190.623 36.7741C189.877 35.2992 189.504 33.5633 189.504 31.5664C189.504 29.6026 189.877 27.8791 190.623 26.396C191.377 24.9045 192.429 23.7444 193.78 22.9158C195.13 22.079 196.717 21.6605 198.54 21.6605C199.717 21.6605 200.827 21.8511 201.871 22.2322C202.923 22.6051 203.851 23.1851 204.655 23.9723C205.467 24.7595 206.105 25.7621 206.569 26.9801C207.033 28.1899 207.265 29.6316 207.265 31.3054V32.685H191.617V29.6523H202.952C202.944 28.7906 202.758 28.0241 202.393 27.353C202.028 26.6735 201.519 26.1391 200.864 25.7496C200.218 25.3602 199.464 25.1655 198.602 25.1655C197.682 25.1655 196.875 25.3892 196.179 25.8366C195.483 26.2758 194.94 26.8558 194.55 27.5767C194.169 28.2893 193.974 29.0723 193.966 29.9258V32.5732C193.966 33.6835 194.169 34.6364 194.575 35.4318C194.981 36.219 195.549 36.8239 196.278 37.2464C197.007 37.6607 197.861 37.8679 198.838 37.8679C199.493 37.8679 200.085 37.7768 200.616 37.5945C201.146 37.4039 201.606 37.1263 201.995 36.7617C202.385 36.3971 202.679 35.9455 202.878 35.407L207.079 35.8793C206.814 36.9896 206.308 37.959 205.562 38.7876C204.825 39.608 203.88 40.246 202.729 40.7017C201.577 41.1491 200.259 41.3729 198.776 41.3729ZM220.605 21.9091V25.3892H209.63V21.9091H220.605ZM212.339 17.3352H216.839V35.2578C216.839 35.8627 216.93 36.3267 217.112 36.6499C217.303 36.9647 217.551 37.1802 217.858 37.2962C218.164 37.4122 218.504 37.4702 218.877 37.4702C219.159 37.4702 219.416 37.4495 219.648 37.408C219.888 37.3666 220.07 37.3293 220.194 37.2962L220.953 40.8136C220.712 40.8964 220.368 40.9876 219.921 41.087C219.482 41.1864 218.943 41.2444 218.305 41.261C217.178 41.2942 216.163 41.1243 215.26 40.7514C214.357 40.3703 213.64 39.782 213.11 38.9865C212.588 38.1911 212.331 37.1967 212.339 36.0036V17.3352ZM236.535 32.9709V21.9091H241.035V41H236.672V37.6069H236.473C236.042 38.6758 235.334 39.55 234.348 40.2294C233.37 40.9089 232.165 41.2486 230.731 41.2486C229.48 41.2486 228.374 40.971 227.413 40.4158C226.46 39.8524 225.714 39.0362 225.175 37.9673C224.637 36.8902 224.367 35.5893 224.367 34.0646V21.9091H228.867V33.3686C228.867 34.5784 229.198 35.5395 229.861 36.2521C230.524 36.9647 231.394 37.321 232.471 37.321C233.134 37.321 233.776 37.1594 234.398 36.8363C235.019 36.5131 235.529 36.0326 235.926 35.3945C236.332 34.7482 236.535 33.9403 236.535 32.9709ZM255.194 21.9091V25.3892H244.22V21.9091H255.194ZM246.929 17.3352H251.428V35.2578C251.428 35.8627 251.52 36.3267 251.702 36.6499C251.892 36.9647 252.141 37.1802 252.448 37.2962C252.754 37.4122 253.094 37.4702 253.467 37.4702C253.749 37.4702 254.005 37.4495 254.237 37.408C254.478 37.3666 254.66 37.3293 254.784 37.2962L255.542 40.8136C255.302 40.8964 254.958 40.9876 254.511 41.087C254.072 41.1864 253.533 41.2444 252.895 41.261C251.768 41.2942 250.753 41.1243 249.85 40.7514C248.947 40.3703 248.23 39.782 247.7 38.9865C247.178 38.1911 246.921 37.1967 246.929 36.0036V17.3352ZM267.08 41.3729C265.215 41.3729 263.6 40.9627 262.232 40.1424C260.865 39.3221 259.805 38.1745 259.051 36.6996C258.305 35.2247 257.932 33.5012 257.932 31.5291C257.932 29.5571 258.305 27.8294 259.051 26.3462C259.805 24.863 260.865 23.7113 262.232 22.891C263.6 22.0707 265.215 21.6605 267.08 21.6605C268.944 21.6605 270.56 22.0707 271.927 22.891C273.294 23.7113 274.351 24.863 275.096 26.3462C275.85 27.8294 276.227 29.5571 276.227 31.5291C276.227 33.5012 275.85 35.2247 275.096 36.6996C274.351 38.1745 273.294 39.3221 271.927 40.1424C270.56 40.9627 268.944 41.3729 267.08 41.3729ZM267.104 37.7685C268.115 37.7685 268.961 37.4909 269.64 36.9357C270.319 36.3723 270.825 35.6183 271.156 34.6737C271.496 33.729 271.666 32.6767 271.666 31.5167C271.666 30.3484 271.496 29.2919 271.156 28.3473C270.825 27.3944 270.319 26.6362 269.64 26.0728C268.961 25.5094 268.115 25.2276 267.104 25.2276C266.069 25.2276 265.207 25.5094 264.519 26.0728C263.84 26.6362 263.33 27.3944 262.991 28.3473C262.659 29.2919 262.493 30.3484 262.493 31.5167C262.493 32.6767 262.659 33.729 262.991 34.6737C263.33 35.6183 263.84 36.3723 264.519 36.9357C265.207 37.4909 266.069 37.7685 267.104 37.7685ZM280.046 41V21.9091H284.409V25.0909H284.608C284.956 23.9889 285.552 23.1396 286.397 22.543C287.251 21.9381 288.224 21.6357 289.318 21.6357C289.567 21.6357 289.844 21.6481 290.151 21.6729C290.466 21.6895 290.727 21.7185 290.934 21.7599V25.8988C290.743 25.8325 290.441 25.7745 290.027 25.7248C289.621 25.6668 289.227 25.6378 288.846 25.6378C288.026 25.6378 287.288 25.8159 286.634 26.1722C285.987 26.5202 285.478 27.005 285.105 27.6264C284.732 28.2479 284.545 28.9646 284.545 29.7766V41H280.046ZM294.507 41.2734C293.753 41.2734 293.107 41.0083 292.568 40.478C292.03 39.9477 291.765 39.3014 291.773 38.5391C291.765 37.7933 292.03 37.1553 292.568 36.625C293.107 36.0947 293.753 35.8295 294.507 35.8295C295.236 35.8295 295.87 36.0947 296.409 36.625C296.956 37.1553 297.233 37.7933 297.242 38.5391C297.233 39.0445 297.101 39.5044 296.844 39.9187C296.595 40.333 296.264 40.6644 295.85 40.913C295.444 41.1533 294.996 41.2734 294.507 41.2734Z" fill="white"/>
<path fill-rule="evenodd" clip-rule="evenodd" d="M40.5 50.3879C48.5703 45.7195 54 36.9938 54 27C54 17.0062 48.5703 8.28055 40.5 3.61212C44.4713 1.31482 49.0821 0 54 0C68.9117 0 81 12.0883 81 27C81 41.9117 68.9117 54 54 54C49.0821 54 44.4713 52.6852 40.5 50.3879ZM40.5 50.3879C36.5287 52.6852 31.9179 54 27 54C12.0883 54 0 41.9117 0 27C0 12.0883 12.0883 0 27 0C31.9179 0 36.5287 1.31482 40.5 3.61212C32.4297 8.28055 27 17.0062 27 27C27 36.9938 32.4297 45.7195 40.5 50.3879Z" fill="white"/>
</svg>
